# MagicaVoxel @ Ephtracy

# group
o 

# material
mtllib guard.mtl
usemtl palette

# normals
vn -1 0 0
vn 1 0 0
vn 0 0 1
vn 0 0 -1
vn 0 -1 0
vn 0 1 0

# texcoords
vt 0.0332031 0.5
vt 0.837891 0.5
vt 0.958984 0.5
vt 0.978516 0.5

# verts
v 0.6 3.6 -1.7
v 0.6 3.6 -2
v 0.6 4.2 -2
v 0.6 4.2 -2.3
v 0.6 4.4 -1.7
v 0.6 4.4 -1.9
v 0.6 4.4 -2.3
v 0.6 4.4 -2.5
v 0.6 5.8 -1.9
v 0.6 5.8 -2.5
v 0.6 6.4 -1.9
v 0.6 6.4 -2.5
v 0.7 4.1 -2
v 0.7 4.1 -2.1
v 0.7 4.2 -2
v 0.7 4.2 -2.1
v 0.8 6.4 -1.9
v 0.8 6.4 -2.5
v 0.8 6.6 -1.9
v 0.8 6.6 -2.5
v 1 2 -1.5
v 1 2 -2.5
v 1 2.4 -1.5
v 1 2.4 -1.9
v 1 2.8 -1.9
v 1 2.8 -2.5
v 1 3.2 -1.9
v 1 3.2 -2.5
v 1 4 -1.7
v 1 4 -1.9
v 1 4 -2.5
v 1 4 -2.7
v 1 4.4 -1.9
v 1 4.4 -2.5
v 1 5.8 -1.9
v 1 5.8 -2.5
v 1 6.6 -1.7
v 1 6.6 -1.9
v 1 6.6 -2.5
v 1 6.6 -2.7
v 1.4 6.6 -1.7
v 1.4 6.6 -2.7
v 1.4 7.4 -1.3
v 1.4 7.4 -1.7
v 1.4 7.4 -2.7
v 1.4 7.6 -1.3
v 1.4 7.6 -1.9
v 1.4 8 -1.9
v 1.4 8 -2.7
v 2.2 2 -1.5
v 2.2 2 -2.5
v 2.2 2.4 -1.5
v 2.2 2.4 -1.9
v 2.2 2.8 -1.9
v 2.2 2.8 -2.5
v 2.2 3.2 -1.9
v 2.2 3.2 -2.5
v 2.2 4 -1.9
v 2.2 4 -2.5
v 0.8 4.1 -2
v 0.8 4.1 -2.1
v 0.8 4.2 -2
v 0.8 4.2 -2.1
v 0.9 3.6 -1.7
v 0.9 3.6 -2
v 0.9 4.2 -2
v 0.9 4.2 -2.3
v 0.9 4.4 -1.7
v 0.9 4.4 -1.9
v 0.9 4.4 -2.3
v 1.6 2 -1.5
v 1.6 2 -2.5
v 1.6 2.4 -1.5
v 1.6 2.4 -1.9
v 1.6 2.8 -1.9
v 1.6 2.8 -2.5
v 1.6 3.2 -1.9
v 1.6 3.2 -2.5
v 1.6 4 -1.9
v 1.6 4 -2.5
v 2.4 6.6 -1.7
v 2.4 6.6 -2.7
v 2.4 7.4 -1.3
v 2.4 7.4 -1.7
v 2.4 7.4 -2.7
v 2.4 7.6 -1.3
v 2.4 7.6 -1.9
v 2.4 8 -1.9
v 2.4 8 -2.7
v 2.8 2 -1.5
v 2.8 2 -2.5
v 2.8 2.4 -1.5
v 2.8 2.4 -1.9
v 2.8 2.8 -1.9
v 2.8 2.8 -2.5
v 2.8 3.2 -1.9
v 2.8 3.2 -2.5
v 2.8 4 -1.7
v 2.8 4 -1.9
v 2.8 4 -2.5
v 2.8 4 -2.7
v 2.8 4.4 -1.9
v 2.8 4.4 -2.5
v 2.8 5.8 -1.9
v 2.8 5.8 -2.5
v 2.8 6.6 -1.7
v 2.8 6.6 -1.9
v 2.8 6.6 -2.5
v 2.8 6.6 -2.7
v 3 6.4 -1.9
v 3 6.4 -2.5
v 3 6.6 -1.9
v 3 6.6 -2.5
v 3.2 4.4 -1.9
v 3.2 4.4 -2.5
v 3.2 5.8 -1.9
v 3.2 5.8 -2.5
v 3.2 6.4 -1.9
v 3.2 6.4 -2.5
v 1.4 7.4 -1.3
v 1.4 7.6 -1.3
v 2.4 7.4 -1.3
v 2.4 7.6 -1.3
v 1 2 -1.5
v 1 2.4 -1.5
v 1.6 2 -1.5
v 1.6 2.4 -1.5
v 2.2 2 -1.5
v 2.2 2.4 -1.5
v 2.8 2 -1.5
v 2.8 2.4 -1.5
v 0.6 3.6 -1.7
v 0.6 4.4 -1.7
v 0.9 3.6 -1.7
v 0.9 4.4 -1.7
v 1 4 -1.7
v 1 6.6 -1.7
v 1.4 6.6 -1.7
v 1.4 7.4 -1.7
v 2.1 5.4 -1.7
v 2.1 5.7 -1.7
v 2.3 5.7 -1.7
v 2.3 5.8 -1.7
v 2.4 5.7 -1.7
v 2.4 5.8 -1.7
v 2.4 6.6 -1.7
v 2.4 7.4 -1.7
v 2.6 5.4 -1.7
v 2.6 5.7 -1.7
v 2.8 4 -1.7
v 2.8 6.6 -1.7
v 0.6 4.4 -1.9
v 0.6 5.8 -1.9
v 0.6 6.4 -1.9
v 0.8 6.4 -1.9
v 0.8 6.6 -1.9
v 0.9 4.4 -1.9
v 1 2.4 -1.9
v 1 2.8 -1.9
v 1 3.2 -1.9
v 1 4 -1.9
v 1 4.4 -1.9
v 1 5.8 -1.9
v 1 6.6 -1.9
v 1.4 7.6 -1.9
v 1.4 8 -1.9
v 1.6 2.4 -1.9
v 1.6 2.8 -1.9
v 1.6 3.2 -1.9
v 1.6 4 -1.9
v 2.2 2.4 -1.9
v 2.2 2.8 -1.9
v 2.2 3.2 -1.9
v 2.2 4 -1.9
v 2.4 7.6 -1.9
v 2.4 8 -1.9
v 2.8 2.4 -1.9
v 2.8 2.8 -1.9
v 2.8 3.2 -1.9
v 2.8 4 -1.9
v 2.8 4.4 -1.9
v 2.8 5.8 -1.9
v 2.8 6.6 -1.9
v 3 6.4 -1.9
v 3 6.6 -1.9
v 3.2 4.4 -1.9
v 3.2 5.8 -1.9
v 3.2 6.4 -1.9
v 0.6 3.6 -2
v 0.6 4.2 -2
v 0.7 4.1 -2
v 0.7 4.2 -2
v 0.8 4.1 -2
v 0.8 4.2 -2
v 0.9 3.6 -2
v 0.9 4.2 -2
v 0.7 4.1 -2.1
v 0.7 4.2 -2.1
v 0.8 4.1 -2.1
v 0.8 4.2 -2.1
v 0.6 4.2 -2.3
v 0.6 4.4 -2.3
v 0.9 4.2 -2.3
v 0.9 4.4 -2.3
v 0.6 4.4 -2.5
v 0.6 5.8 -2.5
v 0.6 6.4 -2.5
v 0.8 6.4 -2.5
v 0.8 6.6 -2.5
v 1 2 -2.5
v 1 2.8 -2.5
v 1 3.2 -2.5
v 1 4 -2.5
v 1 4.4 -2.5
v 1 5.8 -2.5
v 1 6.6 -2.5
v 1.6 2 -2.5
v 1.6 2.8 -2.5
v 1.6 3.2 -2.5
v 1.6 4 -2.5
v 2.2 2 -2.5
v 2.2 2.8 -2.5
v 2.2 3.2 -2.5
v 2.2 4 -2.5
v 2.8 2 -2.5
v 2.8 2.8 -2.5
v 2.8 3.2 -2.5
v 2.8 4 -2.5
v 2.8 4.4 -2.5
v 2.8 5.8 -2.5
v 2.8 6.6 -2.5
v 3 6.4 -2.5
v 3 6.6 -2.5
v 3.2 4.4 -2.5
v 3.2 5.8 -2.5
v 3.2 6.4 -2.5
v 1 4 -2.7
v 1 6.6 -2.7
v 1.4 6.6 -2.7
v 1.4 7.4 -2.7
v 1.4 8 -2.7
v 2.4 6.6 -2.7
v 2.4 7.4 -2.7
v 2.4 8 -2.7
v 2.8 4 -2.7
v 2.8 6.6 -2.7
v 1 2 -1.5
v 1.6 2 -1.5
v 2.2 2 -1.5
v 2.8 2 -1.5
v 1 2 -2.5
v 1.6 2 -2.5
v 2.2 2 -2.5
v 2.8 2 -2.5
v 0.6 3.6 -1.7
v 0.9 3.6 -1.7
v 0.6 3.6 -2
v 0.9 3.6 -2
v 1 4 -1.7
v 2.8 4 -1.7
v 1 4 -1.9
v 1.6 4 -1.9
v 2.2 4 -1.9
v 2.8 4 -1.9
v 1 4 -2.5
v 1.6 4 -2.5
v 2.2 4 -2.5
v 2.8 4 -2.5
v 1 4 -2.7
v 2.8 4 -2.7
v 0.7 4.1 -2
v 0.8 4.1 -2
v 0.7 4.1 -2.1
v 0.8 4.1 -2.1
v 0.6 4.2 -2
v 0.7 4.2 -2
v 0.8 4.2 -2
v 0.9 4.2 -2
v 0.7 4.2 -2.1
v 0.8 4.2 -2.1
v 0.6 4.2 -2.3
v 0.9 4.2 -2.3
v 0.9 4.4 -1.9
v 1 4.4 -1.9
v 2.8 4.4 -1.9
v 3.2 4.4 -1.9
v 0.6 4.4 -2.3
v 0.9 4.4 -2.3
v 0.6 4.4 -2.5
v 1 4.4 -2.5
v 2.8 4.4 -2.5
v 3.2 4.4 -2.5
v 1.4 7.4 -1.3
v 2.4 7.4 -1.3
v 1.4 7.4 -1.7
v 2.4 7.4 -1.7
v 1 2.4 -1.5
v 1.6 2.4 -1.5
v 2.2 2.4 -1.5
v 2.8 2.4 -1.5
v 1 2.4 -1.9
v 1.6 2.4 -1.9
v 2.2 2.4 -1.9
v 2.8 2.4 -1.9
v 0.6 4.4 -1.7
v 0.9 4.4 -1.7
v 0.6 4.4 -1.9
v 0.9 4.4 -1.9
v 0.6 6.4 -1.9
v 0.8 6.4 -1.9
v 3 6.4 -1.9
v 3.2 6.4 -1.9
v 0.6 6.4 -2.5
v 0.8 6.4 -2.5
v 3 6.4 -2.5
v 3.2 6.4 -2.5
v 1 6.6 -1.7
v 1.4 6.6 -1.7
v 2.4 6.6 -1.7
v 2.8 6.6 -1.7
v 0.8 6.6 -1.9
v 1 6.6 -1.9
v 2.8 6.6 -1.9
v 3 6.6 -1.9
v 0.8 6.6 -2.5
v 1 6.6 -2.5
v 2.8 6.6 -2.5
v 3 6.6 -2.5
v 1 6.6 -2.7
v 1.4 6.6 -2.7
v 2.4 6.6 -2.7
v 2.8 6.6 -2.7
v 1.4 7.6 -1.3
v 2.4 7.6 -1.3
v 1.4 7.6 -1.9
v 2.4 7.6 -1.9
v 1.4 8 -1.9
v 2.4 8 -1.9
v 1.4 8 -2.7
v 2.4 8 -2.7

# faces
f 3/4/1 2/4/1 1/4/1
f 5/4/1 3/4/1 1/4/1
f 5/4/1 4/4/1 3/4/1
f 6/4/1 4/4/1 5/4/1
f 7/4/1 4/4/1 6/4/1
f 9/1/1 8/1/1 7/1/1
f 9/1/1 7/1/1 6/1/1
f 10/1/1 8/1/1 9/1/1
f 11/2/1 10/2/1 9/2/1
f 12/2/1 10/2/1 11/2/1
f 15/4/1 14/4/1 13/4/1
f 16/4/1 14/4/1 15/4/1
f 19/2/1 18/2/1 17/2/1
f 20/2/1 18/2/1 19/2/1
f 23/2/1 22/2/1 21/2/1
f 24/2/1 22/2/1 23/2/1
f 25/2/1 22/2/1 24/2/1
f 26/2/1 22/2/1 25/2/1
f 27/1/1 26/1/1 25/1/1
f 28/1/1 26/1/1 27/1/1
f 30/2/1 28/2/1 27/2/1
f 31/2/1 28/2/1 30/2/1
f 33/2/1 31/2/1 30/2/1
f 33/2/1 32/2/1 31/2/1
f 33/2/1 30/2/1 29/2/1
f 34/2/1 32/2/1 33/2/1
f 35/2/1 33/2/1 29/2/1
f 36/2/1 32/2/1 34/2/1
f 37/2/1 35/2/1 29/2/1
f 38/2/1 35/2/1 37/2/1
f 39/2/1 32/2/1 36/2/1
f 40/2/1 32/2/1 39/2/1
f 44/1/1 42/1/1 41/1/1
f 45/1/1 42/1/1 44/1/1
f 46/2/1 44/2/1 43/2/1
f 46/2/1 45/2/1 44/2/1
f 47/2/1 45/2/1 46/2/1
f 48/2/1 45/2/1 47/2/1
f 49/2/1 45/2/1 48/2/1
f 52/2/1 51/2/1 50/2/1
f 53/2/1 51/2/1 52/2/1
f 54/2/1 51/2/1 53/2/1
f 55/2/1 51/2/1 54/2/1
f 56/1/1 55/1/1 54/1/1
f 57/1/1 55/1/1 56/1/1
f 58/2/1 57/2/1 56/2/1
f 59/2/1 57/2/1 58/2/1
f 60/4/2 61/4/2 62/4/2
f 62/4/2 61/4/2 63/4/2
f 64/4/2 65/4/2 66/4/2
f 64/4/2 66/4/2 68/4/2
f 66/4/2 67/4/2 68/4/2
f 68/4/2 67/4/2 69/4/2
f 69/4/2 67/4/2 70/4/2
f 71/2/2 72/2/2 73/2/2
f 73/2/2 72/2/2 74/2/2
f 74/2/2 72/2/2 75/2/2
f 75/2/2 72/2/2 76/2/2
f 75/1/2 76/1/2 77/1/2
f 77/1/2 76/1/2 78/1/2
f 77/2/2 78/2/2 79/2/2
f 79/2/2 78/2/2 80/2/2
f 81/1/2 82/1/2 84/1/2
f 84/1/2 82/1/2 85/1/2
f 83/2/2 84/2/2 86/2/2
f 84/2/2 85/2/2 86/2/2
f 86/2/2 85/2/2 87/2/2
f 87/2/2 85/2/2 88/2/2
f 88/2/2 85/2/2 89/2/2
f 90/2/2 91/2/2 92/2/2
f 92/2/2 91/2/2 93/2/2
f 93/2/2 91/2/2 94/2/2
f 94/2/2 91/2/2 95/2/2
f 94/1/2 95/1/2 96/1/2
f 96/1/2 95/1/2 97/1/2
f 96/2/2 97/2/2 99/2/2
f 99/2/2 97/2/2 100/2/2
f 99/2/2 100/2/2 102/2/2
f 100/2/2 101/2/2 102/2/2
f 98/2/2 99/2/2 102/2/2
f 102/2/2 101/2/2 103/2/2
f 98/2/2 102/2/2 104/2/2
f 103/2/2 101/2/2 105/2/2
f 98/2/2 104/2/2 106/2/2
f 106/2/2 104/2/2 107/2/2
f 105/2/2 101/2/2 108/2/2
f 108/2/2 101/2/2 109/2/2
f 110/2/2 111/2/2 112/2/2
f 112/2/2 111/2/2 113/2/2
f 114/1/2 115/1/2 116/1/2
f 116/1/2 115/1/2 117/1/2
f 116/2/2 117/2/2 118/2/2
f 118/2/2 117/2/2 119/2/2
f 122/2/3 121/2/3 120/2/3
f 123/2/3 121/2/3 122/2/3
f 126/2/3 125/2/3 124/2/3
f 127/2/3 125/2/3 126/2/3
f 130/2/3 129/2/3 128/2/3
f 131/2/3 129/2/3 130/2/3
f 134/4/3 133/4/3 132/4/3
f 135/4/3 133/4/3 134/4/3
f 138/2/3 137/2/3 136/2/3
f 140/2/3 138/2/3 136/2/3
f 141/2/3 138/2/3 140/2/3
f 142/3/3 141/3/3 140/3/3
f 142/2/3 138/2/3 141/2/3
f 143/2/3 138/2/3 142/2/3
f 144/3/3 142/3/3 140/3/3
f 144/3/3 143/3/3 142/3/3
f 145/2/3 138/2/3 143/2/3
f 145/3/3 143/3/3 144/3/3
f 146/1/3 139/1/3 138/1/3
f 146/2/3 138/2/3 145/2/3
f 147/1/3 139/1/3 146/1/3
f 148/2/3 140/2/3 136/2/3
f 148/3/3 144/3/3 140/3/3
f 149/2/3 145/2/3 144/2/3
f 149/3/3 144/3/3 148/3/3
f 149/2/3 146/2/3 145/2/3
f 150/2/3 148/2/3 136/2/3
f 150/2/3 149/2/3 148/2/3
f 151/2/3 146/2/3 149/2/3
f 151/2/3 149/2/3 150/2/3
f 155/2/3 154/2/3 153/2/3
f 157/1/3 153/1/3 152/1/3
f 162/1/3 153/1/3 157/1/3
f 163/2/3 156/2/3 155/2/3
f 163/1/3 153/1/3 162/1/3
f 163/2/3 155/2/3 153/2/3
f 164/2/3 156/2/3 163/2/3
f 167/2/3 159/2/3 158/2/3
f 168/1/3 160/1/3 159/1/3
f 168/2/3 159/2/3 167/2/3
f 169/2/3 161/2/3 160/2/3
f 169/1/3 160/1/3 168/1/3
f 170/2/3 161/2/3 169/2/3
f 175/2/3 166/2/3 165/2/3
f 176/2/3 166/2/3 175/2/3
f 177/2/3 172/2/3 171/2/3
f 178/1/3 173/1/3 172/1/3
f 178/2/3 172/2/3 177/2/3
f 179/2/3 174/2/3 173/2/3
f 179/1/3 173/1/3 178/1/3
f 180/2/3 174/2/3 179/2/3
f 184/2/3 183/2/3 182/2/3
f 185/2/3 183/2/3 184/2/3
f 186/1/3 182/1/3 181/1/3
f 187/2/3 184/2/3 182/2/3
f 187/1/3 182/1/3 186/1/3
f 188/2/3 184/2/3 187/2/3
f 189/4/4 190/4/4 191/4/4
f 191/4/4 190/4/4 192/4/4
f 189/4/4 191/4/4 193/4/4
f 189/4/4 193/4/4 195/4/4
f 193/4/4 194/4/4 195/4/4
f 195/4/4 194/4/4 196/4/4
f 197/4/4 198/4/4 199/4/4
f 199/4/4 198/4/4 200/4/4
f 201/4/4 202/4/4 203/4/4
f 203/4/4 202/4/4 204/4/4
f 206/2/4 207/2/4 208/2/4
f 205/1/4 206/1/4 214/1/4
f 206/2/4 208/2/4 215/2/4
f 214/1/4 206/1/4 215/1/4
f 208/2/4 209/2/4 215/2/4
f 215/2/4 209/2/4 216/2/4
f 210/2/4 211/2/4 217/2/4
f 211/1/4 212/1/4 218/1/4
f 217/2/4 211/2/4 218/2/4
f 212/2/4 213/2/4 219/2/4
f 218/1/4 212/1/4 219/1/4
f 219/2/4 213/2/4 220/2/4
f 221/2/4 222/2/4 225/2/4
f 222/1/4 223/1/4 226/1/4
f 225/2/4 222/2/4 226/2/4
f 223/2/4 224/2/4 227/2/4
f 226/1/4 223/1/4 227/1/4
f 227/2/4 224/2/4 228/2/4
f 230/2/4 231/2/4 232/2/4
f 232/2/4 231/2/4 233/2/4
f 229/1/4 230/1/4 234/1/4
f 230/2/4 232/2/4 235/2/4
f 234/1/4 230/1/4 235/1/4
f 235/2/4 232/2/4 236/2/4
f 237/2/4 238/2/4 239/2/4
f 237/2/4 239/2/4 242/2/4
f 239/1/4 240/1/4 242/1/4
f 240/2/4 241/2/4 243/2/4
f 242/1/4 240/1/4 243/1/4
f 243/2/4 241/2/4 244/2/4
f 237/2/4 242/2/4 245/2/4
f 245/2/4 242/2/4 246/2/4
f 251/2/5 248/2/5 247/2/5
f 252/2/5 248/2/5 251/2/5
f 253/2/5 250/2/5 249/2/5
f 254/2/5 250/2/5 253/2/5
f 257/4/5 256/4/5 255/4/5
f 258/4/5 256/4/5 257/4/5
f 261/2/5 260/2/5 259/2/5
f 262/2/5 260/2/5 261/2/5
f 263/2/5 260/2/5 262/2/5
f 264/2/5 260/2/5 263/2/5
f 266/2/5 263/2/5 262/2/5
f 267/2/5 263/2/5 266/2/5
f 269/2/5 266/2/5 265/2/5
f 269/2/5 268/2/5 267/2/5
f 269/2/5 267/2/5 266/2/5
f 270/2/5 268/2/5 269/2/5
f 273/4/5 272/4/5 271/4/5
f 274/4/5 272/4/5 273/4/5
f 279/4/5 276/4/5 275/4/5
f 280/4/5 278/4/5 277/4/5
f 281/4/5 279/4/5 275/4/5
f 281/4/5 280/4/5 279/4/5
f 282/4/5 278/4/5 280/4/5
f 282/4/5 280/4/5 281/4/5
f 288/1/5 284/1/5 283/1/5
f 289/1/5 288/1/5 287/1/5
f 290/1/5 284/1/5 288/1/5
f 290/1/5 288/1/5 289/1/5
f 291/1/5 286/1/5 285/1/5
f 292/1/5 286/1/5 291/1/5
f 295/2/5 294/2/5 293/2/5
f 296/2/5 294/2/5 295/2/5
f 297/2/6 298/2/6 301/2/6
f 301/2/6 298/2/6 302/2/6
f 299/2/6 300/2/6 303/2/6
f 303/2/6 300/2/6 304/2/6
f 305/4/6 306/4/6 307/4/6
f 307/4/6 306/4/6 308/4/6
f 309/2/6 310/2/6 313/2/6
f 313/2/6 310/2/6 314/2/6
f 311/2/6 312/2/6 315/2/6
f 315/2/6 312/2/6 316/2/6
f 317/2/6 318/2/6 322/2/6
f 319/2/6 320/2/6 323/2/6
f 321/2/6 322/2/6 325/2/6
f 322/2/6 318/2/6 326/2/6
f 325/2/6 322/2/6 326/2/6
f 323/2/6 324/2/6 327/2/6
f 319/2/6 323/2/6 327/2/6
f 327/2/6 324/2/6 328/2/6
f 326/2/6 318/2/6 329/2/6
f 329/2/6 318/2/6 330/2/6
f 319/2/6 327/2/6 331/2/6
f 331/2/6 327/2/6 332/2/6
f 333/2/6 334/2/6 335/2/6
f 335/2/6 334/2/6 336/2/6
f 337/2/6 338/2/6 339/2/6
f 339/2/6 338/2/6 340/2/6
